Coordinates
version=1
nRows=11
nColumns=63
inDegrees=yes

Units are S.I. units (second, meters, Newtons, ...)
If the header above contains a line with 'inDegrees', this indicates whether rotational values are in degrees (yes) or radians (no).

endheader
time	pelvis_tilt	pelvis_list	pelvis_rotation	pelvis_tx	pelvis_ty	pelvis_tz	hip_flexion_r	hip_adduction_r	hip_rotation_r	knee_angle_r	knee_angle_r_beta	ankle_angle_r	subtalar_angle_r	mtp_angle_r	hip_flexion_l	hip_adduction_l	hip_rotation_l	knee_angle_l	knee_angle_l_beta	ankle_angle_l	subtalar_angle_l	mtp_angle_l	L5_S1_Flex_Ext	L5_S1_Lat_Bending	L5_S1_axial_rotation	L4_L5_Flex_Ext	L4_L5_Lat_Bending	L4_L5_axial_rotation	L3_L4_Flex_Ext	L3_L4_Lat_Bending	L3_L4_axial_rotation	L2_L3_Flex_Ext	L2_L3_Lat_Bending	L2_L3_axial_rotation	L1_L2_Flex_Ext	L1_L2_Lat_Bending	L1_L2_axial_rotation	L1_T12_Flex_Ext	L1_T12_Lat_Bending	L1_T12_axial_rotation	Abs_r3	Abs_r2	Abs_r1	Abs_t1	Abs_t2	neck_flexion	neck_bending	neck_rotation	arm_flex_r	arm_add_r	arm_rot_r	elbow_flex_r	pro_sup_r	wrist_flex_r	wrist_dev_r	arm_flex_l	arm_add_l	arm_rot_l	elbow_flex_l	pro_sup_l	wrist_flex_l	wrist_dev_l
      3.66101695	      4.52916858	    -10.38770312	    111.70429608	      0.20544751	      0.91264629	      0.56206823	      3.52306180	      2.57740484	    -17.91929356	      7.64112418	      0.13336278	     28.06625160	     -4.27657418	      0.00000000	      3.11000356	     -3.21457157	     15.59857199	      2.21475023	      0.03865468	     26.09285492	      4.52047432	      0.00000000	      0.05642838	      0.57370262	     -3.09173697	      0.10479315	      0.76302448	     -3.28497053	      0.09270619	      1.39490054	     -3.28497053	      0.06449200	      1.39490054	     -2.70526985	      0.05239939	      1.16989438	     -2.51203629	      0.03224318	      0.88866535	     -2.31880273	      0.40306228	      6.48983874	    -17.19531350	      0.00000000	      0.00000000	     22.14127172	     -1.36769217	      3.65421149	     25.38948375	     -8.95275591	     28.91886767	     90.18376874	     76.14914622	     -0.07024853	      7.64557964	     16.81397100	     -8.09723266	     15.12442523	     94.08002945	     77.67814225	     -8.58620439	      5.42595064
      3.67796610	      4.18367754	    -10.31758947	    111.51994371	      0.20487016	      0.91226212	      0.56399590	      3.42363917	      2.15258881	    -17.82810315	      7.97814324	      0.13924487	     27.69663416	     -4.15735937	      0.00000000	      3.08669551	     -2.81427573	     15.04251266	      2.44409585	      0.04265752	     26.01953394	      4.79529484	      0.00000000	      0.05124491	      0.54881028	     -3.11623190	      0.09516692	      0.72991767	     -3.31099639	      0.08419026	      1.33437731	     -3.31099639	      0.05856780	      1.33437731	     -2.72670291	      0.04758602	      1.11913392	     -2.53193842	      0.02928134	      0.85010712	     -2.33717392	      0.36603725	      6.20825162	    -17.33154694	      0.00000000	      0.00000000	     22.43038140	     -1.21676051	      4.22970204	     27.26873050	     -8.91434601	     31.13252278	     88.09320356	     73.79287306	      2.82581105	      6.84134308	     17.35283698	     -8.52715826	     16.75220308	     95.58061376	     75.34900187	     -8.34572157	      6.13067172
      3.69491525	      4.02479759	    -10.49665970	    111.24711211	      0.20444783	      0.91199087	      0.56577878	      3.51504715	      1.88822232	    -17.50881875	      7.92491166	      0.13831580	     27.04068274	     -4.30381475	      0.00000000	      3.33256688	     -2.54321543	     13.68855478	      2.57301255	      0.04490754	     25.90412485	      6.08431245	      0.00000000	      0.08790366	      0.53872169	     -3.15573994	      0.16324588	      0.71649984	     -3.35297368	      0.14441692	      1.30984791	     -3.35297368	      0.10046509	      1.30984791	     -2.76127245	      0.08162734	      1.09856127	     -2.56403870	      0.05022815	      0.83447989	     -2.36680495	      0.62788703	      6.09412748	    -17.55127881	      0.00000000	      0.00000000	     22.43552884	     -0.61479419	      5.42626411	     28.54586763	     -8.71804153	     32.45791027	     85.99712149	     69.75961514	      6.64847003	      6.92370682	     17.41239661	     -9.02650585	     17.91187061	     96.48842573	     70.72866795	     -9.58729773	      6.23381025
      3.71186441	      3.94001150	    -10.59408288	    111.09386756	      0.20383059	      0.91197704	      0.56758342	      3.57713967	      1.68305737	    -17.43350225	      7.87236506	      0.13739869	     26.61971081	     -4.18177269	      0.00000000	      3.46980412	     -2.36025377	     13.52877791	      2.55864503	      0.04465678	     25.75612828	      6.01778308	      0.00000000	      0.11047583	      0.53189352	     -3.15023802	      0.20516467	      0.70741838	     -3.34712790	      0.18150075	      1.29324590	     -3.34712790	      0.12626283	      1.29324590	     -2.75645827	      0.10258786	      1.08463726	     -2.55956839	      0.06312589	      0.82390306	     -2.36267851	      0.78911783	      6.01688584	    -17.52067879	      0.00000000	      0.00000000	     22.63259284	     -0.46485637	      5.51331625	     28.88102415	     -8.71235993	     32.66650616	     84.96319340	     69.80129604	      6.76903662	      7.16870067	     17.48466480	     -8.78200391	     18.04268945	     96.00691968	     70.56989387	     -9.75552609	      6.41540628
      3.72881356	      3.61450977	    -10.68707819	    109.64505103	      0.20461723	      0.91221602	      0.56885325	      3.68238071	      1.29022773	    -16.30065402	      7.91842406	      0.13820257	     26.27507296	     -3.89204951	      0.00000000	      3.32785815	     -2.00833471	     12.27515974	      2.46673104	      0.04305258	     25.45740110	      5.46529602	      0.00000000	      0.11459294	      0.51631162	     -3.06371289	      0.21281055	      0.68669445	     -3.25519494	      0.18826474	      1.25536006	     -3.25519494	      0.13096827	      1.25536006	     -2.68074878	      0.10641100	      1.05286265	     -2.48926672	      0.06547841	      0.79976669	     -2.29778466	      0.81852591	      5.84062026	    -17.03945196	      0.00000000	      0.00000000	     22.48521063	      0.51520145	      7.74780822	     29.84711874	     -8.24367309	     33.39002896	     82.88079034	     69.50427741	      9.64804370	      7.73214136	     16.82530448	     -8.75581593	     17.38286559	     95.96015689	     68.81545001	    -12.85984384	      7.23398034
      3.74576271	      3.37306442	    -10.70328778	    108.75186771	      0.20519037	      0.91249734	      0.57007079	      3.62516067	      1.03578276	    -15.68359429	      7.80341958	      0.13619536	     25.69652842	     -3.81691973	      0.00000000	      3.18488290	     -1.76722554	     11.60607427	      2.33285212	      0.04071595	     25.30269563	      4.95366879	      0.00000000	      0.12193830	      0.49199469	     -2.95500342	      0.22645161	      0.65435294	     -3.13969113	      0.20033243	      1.19623589	     -3.13969113	      0.13936328	      1.19623589	     -2.58562799	      0.11323190	      1.00327557	     -2.40094028	      0.06967554	      0.76209978	     -2.21625257	      0.87099307	      5.56554235	    -16.43484252	      0.00000000	      0.00000000	     22.50540802	      0.95460669	      8.36213016	     30.04125867	     -8.24940641	     33.93242828	     81.90560323	     69.65075392	      9.05804312	      8.33662013	     16.40508500	     -8.04004019	     16.67741702	     94.78127600	     69.36335945	    -14.16025706	      7.23823452
      3.76271186	      3.07177069	    -10.62097517	    107.99277234	      0.20575014	      0.91278489	      0.57101219	      3.39467943	      0.77391266	    -15.29676910	      7.68462370	      0.13412199	     24.95465671	     -3.95588006	      0.00000000	      2.95611264	     -1.49954334	     11.09981016	      2.24466395	      0.03917678	     25.25433509	      4.44708462	      0.00000000	      0.12717673	      0.45782568	     -2.82129574	      0.23617991	      0.60890815	     -2.99762672	      0.20893866	      1.11315735	     -2.99762672	      0.14535029	      1.11315735	     -2.46863377	      0.11809631	      0.93359812	     -2.29230279	      0.07266879	      0.70917197	     -2.11597180	      0.90841069	      5.17901562	    -15.69120050	      0.00000000	      0.00000000	     22.33591216	      1.41932219	      8.81109446	     30.03778764	     -8.49646538	     34.65895198	     81.13525307	     69.46983202	      8.07944936	      8.58492224	     16.01416205	     -7.09435531	     16.02675571	     93.39198251	     70.14436501	    -14.80645576	      7.26704725
      3.77966102	      2.80420767	    -10.59834843	    107.65759483	      0.20642215	      0.91294334	      0.57233527	      3.26134974	      0.52412438	    -15.55296903	      7.67671501	      0.13398395	     23.97701419	     -4.14859548	      0.00000000	      2.91529966	     -1.26089302	     10.93703749	      2.22408800	      0.03881766	     25.26126091	      4.27284937	      0.00000000	      0.14043096	      0.41914187	     -2.73720882	      0.26079434	      0.55745868	     -2.90828437	      0.23071403	      1.01910153	     -2.90828437	      0.16049855	      1.01910153	     -2.39505772	      0.13040419	      0.85471409	     -2.22398217	      0.08024225	      0.64925075	     -2.05290662	      1.00308432	      4.74141661	    -15.22353429	      0.00000000	      0.00000000	     22.52593379	      1.59900576	      9.01135493	     29.91305505	     -8.71414652	     35.13551411	     80.43387326	     69.37902428	      7.66315653	      8.72733809	     15.76380594	     -6.47404252	     15.73933264	     92.23658499	     70.28469505	    -15.00443042	      7.39719734
      3.79661017	      2.54421360	    -10.42127507	    106.07379179	      0.20819006	      0.91307276	      0.57233876	      2.94060285	      0.60179483	    -11.96562168	      7.45366478	      0.13009099	     21.99303003	     -8.15678367	      0.00000000	      2.40230743	     -1.10110602	     10.95553853	      1.94549894	      0.03395536	     24.87789852	      1.98609092	      0.00000000	      0.14013033	      0.39067486	     -2.46484645	      0.26023603	      0.51959756	     -2.61889936	      0.23022012	      0.94988685	     -2.61889936	      0.16015495	      0.94988685	     -2.15674065	      0.13012502	      0.79666417	     -2.00268774	      0.08007047	      0.60515536	     -1.84863484	      1.00093692	      4.41939214	    -13.70873653	      0.00000000	      0.00000000	     22.39353089	      2.30622479	      9.65611897	     30.24867093	     -9.58751486	     37.59713076	     80.29888237	     65.59344523	      3.32110538	      7.98112189	     15.02169026	     -5.48453915	     14.57385303	     91.41126375	     72.53222161	    -13.89315091	      8.30536294
      3.81355932	      2.33593023	    -10.22944787	    105.47659113	      0.20897290	      0.91328911	      0.57274393	      2.55889928	      0.50208732	    -12.20899715	      7.31339674	      0.12764285	     20.78805748	     -8.43888341	      0.00000000	      2.14109967	     -0.96470708	     10.73197390	      1.94447547	      0.03393750	     24.84717371	      1.63234001	      0.00000000	      0.13761704	      0.36301600	     -2.34851515	      0.25556861	      0.48281128	     -2.49529734	      0.22609104	      0.88263709	     -2.49529734	      0.15728252	      0.88263709	     -2.05495075	      0.12779119	      0.74026222	     -1.90816856	      0.07863438	      0.56231178	     -1.76138636	      0.98298479	      4.10650956	    -13.06173670	      0.00000000	      0.00000000	     22.54411044	      2.77754478	      9.70249155	     30.10625994	     -9.89944952	     38.04271979	     80.00245068	     65.57984215	      2.32838894	      7.67351024	     14.55094473	     -4.88840017	     14.26640180	     90.78307535	     72.12848048	    -13.75397589	      8.70326642
      3.83050847	      2.19685123	    -10.07493010	    104.37590617	      0.21044203	      0.91342641	      0.57251553	      2.32408850	      0.52822084	    -11.23672814	      7.26870716	      0.12686287	     19.36609203	     -9.77187289	      0.00000000	      1.79470760	     -0.92453572	     10.75000126	      1.82929275	      0.03192718	     24.79499827	      0.58795658	      0.00000000	      0.13762801	      0.34861326	     -2.16784234	      0.25558898	      0.46365563	     -2.30333248	      0.22610906	      0.84761828	     -2.30333248	      0.15729505	      0.84761828	     -1.89686205	      0.12780137	      0.71089216	     -1.76137190	      0.07864064	      0.54000194	     -1.62588175	      0.98306311	      3.94358290	    -12.05688873	      0.00000000	      0.00000000	     22.79754956	      3.09172168	      9.96997951	     30.18490643	    -10.31717234	     39.31160756	     80.01886370	     65.52179893	     -1.28997394	      6.35687466	     13.98933642	     -4.53477345	     13.79720976	     90.60520937	     70.79141679	    -12.53807933	     10.01085518
